# xmcd
#
# Track frame offsets:
#	150
#	30609
#	62222
#	108811
#	146633
#	170286
#	209775
#
# Disc length: 3329 seconds
#
# Revision: 1
# Processed by: cddbd v1.5.2PL0 Copyright (c) Steve Scherf et al.
# Submitted via: audiograbber 1.83.01
#
DISCID=630cff07
DTITLE=Grateful Dead - 84-11-03 Berkeley Community Theatre, Berkeley CA
DYEAR=1900
DGENRE=
TTITLE0=Alabama Getaway
TTITLE1=Promised Land
TTITLE2=Friend Of The Devil
TTITLE3=Down In The Bottom
TTITLE4=IT Must Have Been The Roses
TTITLE5=The Music Never Stopped
TTITLE6=Deal
EXTD=
EXTT0=
EXTT1=
EXTT2=
EXTT3=
EXTT4=
EXTT5=
EXTT6=
PLAYORDER=
